<?xml version="1.0" encoding="UTF-8"?>
<svg id="Layer_1" data-name="Layer 1" xmlns="http://www.w3.org/2000/svg" viewBox="0 0 479.87 424.8">
  <defs>
    <style>
      .cls-1 {
        fill: #fff;
      }
    </style>
  </defs>
  <path class="cls-1" d="M364.94,202.18l-10.9-18.29-8.63-14.46-34.64-58.08h-142.37l-33.95,56.93v.03l-7.88,13.17-11.67,19.55-18.89,31.71,33.7,67.02v.03l.23.4c10.29-2.9,20.67-5.35,31.11-7.39.98-.2,1.96-.37,2.93-.55,10.09-1.93,20.27-3.48,30.48-4.6,30.42-3.39,61.1-3.36,91.49.09,10.52,1.18,20.99,2.82,31.4,4.86.66.11,1.32.23,1.98.37,10.21,2.01,20.36,4.43,30.42,7.25l.4.69,33.72-67.02-18.92-31.71ZM337.11,234.01l-5.26,15.64c-4.69-1.09-9.37-2.1-14.09-3.02-3.39-.66-6.81-1.29-10.24-1.84-44.56-7.53-90.08-7.56-134.7-.14-3.82.63-7.65,1.32-11.47,2.07-4,.78-7.96,1.61-11.93,2.53l-5.29-15.67c6.93-1.7,13.89-3.16,20.87-4.49,2.56-.46,5.09-.92,7.65-1.32l66.93-116.41,66.9,116.35c2.96.46,5.92,1.01,8.86,1.55,7.3,1.38,14.55,2.93,21.76,4.72v.03Z"/>
</svg>